<?xml version="1.0" encoding="utf-8"?>
<!DOCTYPE svg PUBLIC "-//W3C//DTD SVG 1.1//EN" "http://www.w3.org/Graphics/SVG/1.1/DTD/svg11.dtd">
<svg version="1.1" id="Layer_1" xmlns="http://www.w3.org/2000/svg" xmlns:xlink="http://www.w3.org/1999/xlink" x="0px" y="0px"
	 width="488.5px" height="252px" viewBox="0 0 488.5 252" enable-background="new 0 0 488.5 252" xml:space="preserve">
<text transform="matrix(1 0 0 1 3.75 24.0332)" font-family="'Tahoma'" font-size="23.6185">T:</text>
<text transform="matrix(1 0 0 1 3.75 97.3486)"><tspan x="0" y="0" fill="#00A79D" font-family="'Tahoma'" font-size="23.6185">std::</tspan><tspan x="48.194" y="0" font-family="'Tahoma'" font-size="23.6185">vector&lt;T&gt; memory layout:</tspan></text>
<g>
	
		<rect x="24.017" y="115.062" fill="#D7DF23" stroke="#000000" stroke-width="0.5" stroke-miterlimit="10" width="48.867" height="20.666"/>
	
		<rect x="72.883" y="115.062" fill="#27AAE1" stroke="#000000" stroke-width="0.5" stroke-miterlimit="10" width="67.165" height="20.666"/>
	
		<rect x="3.996" y="115.062" fill="#FBB040" stroke="#000000" stroke-width="0.5" stroke-miterlimit="10" width="20.021" height="20.666"/>
	<rect x="3.996" y="115.062" fill="none" stroke="#000000" stroke-miterlimit="10" width="136.052" height="20.666"/>
</g>
<g>
	
		<rect x="75.22" y="4.843" fill="#D7DF23" stroke="#000000" stroke-width="0.5" stroke-miterlimit="10" width="55.848" height="23.619"/>
	
		<rect x="131.068" y="4.843" fill="#27AAE1" stroke="#000000" stroke-width="0.5" stroke-miterlimit="10" width="76.76" height="23.619"/>
	
		<rect x="38.071" y="4.843" fill="#FBB040" stroke="#000000" stroke-width="0.5" stroke-miterlimit="10" width="37.888" height="23.619"/>
	<text transform="matrix(1 0 0 1 43.4834 24.5249)" font-family="'Tahoma'" font-size="23.6185">int</text>
	<text transform="matrix(1 0 0 1 82.3555 24.5244)" font-family="'Tahoma'" font-size="23.6185">bool</text>
	<text transform="matrix(1 0 0 1 134.5127 24.5249)" font-family="'Tahoma'" font-size="23.6185">double</text>
	<rect x="38.071" y="4.843" fill="none" stroke="#000000" stroke-miterlimit="10" width="169.757" height="23.619"/>
</g>
<g>
	
		<rect x="160.068" y="115.062" fill="#D7DF23" stroke="#000000" stroke-width="0.5" stroke-miterlimit="10" width="48.867" height="20.666"/>
	
		<rect x="208.936" y="115.062" fill="#27AAE1" stroke="#000000" stroke-width="0.5" stroke-miterlimit="10" width="67.165" height="20.666"/>
	
		<rect x="140.048" y="115.062" fill="#FBB040" stroke="#000000" stroke-width="0.5" stroke-miterlimit="10" width="20.02" height="20.666"/>
	<rect x="140.048" y="115.062" fill="none" stroke="#000000" stroke-miterlimit="10" width="136.052" height="20.666"/>
</g>
<g>
	
		<rect x="296.121" y="115.062" fill="#D7DF23" stroke="#000000" stroke-width="0.5" stroke-miterlimit="10" width="48.866" height="20.666"/>
	
		<rect x="344.987" y="115.062" fill="#27AAE1" stroke="#000000" stroke-width="0.5" stroke-miterlimit="10" width="67.165" height="20.666"/>
	
		<rect x="276.101" y="115.062" fill="#FBB040" stroke="#000000" stroke-width="0.5" stroke-miterlimit="10" width="20.021" height="20.666"/>
	<rect x="276.101" y="115.062" fill="none" stroke="#000000" stroke-miterlimit="10" width="136.052" height="20.666"/>
</g>
<text transform="matrix(1 0 0 1 3.9961 203.6318)"><tspan x="0" y="0" fill="#00A79D" font-family="'Tahoma'" font-size="23.6185">scattered::</tspan><tspan x="112.764" y="0" font-family="'Tahoma'" font-size="23.6185">vector&lt;T&gt; memory layout:</tspan></text>
<rect x="3.996" y="224.79" fill="#FBB040" stroke="#000000" stroke-width="0.5" stroke-miterlimit="10" width="20.021" height="20.667"/>
<rect x="102.207" y="224.79" fill="#D7DF23" stroke="#000000" stroke-width="0.5" stroke-miterlimit="10" width="48.867" height="20.667"/>
<rect x="282.005" y="224.79" fill="#27AAE1" stroke="#000000" stroke-width="0.5" stroke-miterlimit="10" width="67.165" height="20.667"/>
<rect x="24.017" y="224.79" fill="#FBB040" stroke="#000000" stroke-width="0.5" stroke-miterlimit="10" width="20.02" height="20.667"/>
<rect x="44.037" y="224.79" fill="#FBB040" stroke="#000000" stroke-width="0.5" stroke-miterlimit="10" width="20.021" height="20.667"/>
<rect x="151.073" y="224.79" fill="#D7DF23" stroke="#000000" stroke-width="0.5" stroke-miterlimit="10" width="48.867" height="20.667"/>
<rect x="199.956" y="224.79" fill="#D7DF23" stroke="#000000" stroke-width="0.5" stroke-miterlimit="10" width="48.867" height="20.667"/>
<rect x="349.17" y="224.79" fill="#27AAE1" stroke="#000000" stroke-width="0.5" stroke-miterlimit="10" width="67.165" height="20.667"/>
<rect x="416.335" y="224.79" fill="#27AAE1" stroke="#000000" stroke-width="0.5" stroke-miterlimit="10" width="67.165" height="20.667"/>
<rect x="3.996" y="224.79" fill="none" stroke="#000000" stroke-miterlimit="10" width="60.061" height="20.667"/>
<rect x="102.207" y="224.79" fill="none" stroke="#000000" stroke-miterlimit="10" width="146.616" height="20.667"/>
<rect x="282.005" y="224.79" fill="none" stroke="#000000" stroke-miterlimit="10" width="201.495" height="20.667"/>
</svg>
